<svg width="634" height="306" viewBox="0 0 634 306" fill="none" xmlns="http://www.w3.org/2000/svg">
<path d="M154.975 293.28C150.275 291.78 150.175 291.68 150.475 288.08C150.775 284.88 151.175 284.38 153.575 284.08C159.175 283.38 155.875 280.88 149.275 280.88C147.175 280.88 145.275 280.38 145.075 279.68C144.775 278.88 142.175 278.58 136.975 278.68L129.275 278.78V274.88C129.275 272.68 129.775 270.88 130.275 270.88C130.875 270.88 131.275 269.98 131.275 268.88C131.275 267.08 131.975 266.88 137.575 266.88C141.075 266.88 144.275 267.28 144.875 267.78C145.375 268.28 148.975 269.88 152.775 271.48C158.675 273.88 161.675 274.38 171.775 274.88L183.775 275.38L184.075 279.58L184.375 283.78L176.075 284.58C171.375 284.98 169.175 285.48 171.075 285.68C173.975 285.98 174.275 286.28 174.275 289.38C174.275 291.28 173.875 292.98 173.475 293.28C171.075 294.68 159.475 294.78 154.975 293.28Z" fill="#9664E8"/>
<path d="M543.275 277.98V272.88H548.075C555.775 272.88 557.275 273.68 557.275 277.38C557.275 281.18 556.475 281.58 548.675 282.48L543.275 283.18V277.98Z" fill="#9664E8"/>
<path d="M515.275 278.081C515.275 277.481 512.675 276.681 509.575 276.381C502.975 275.581 497.275 273.481 497.275 271.981C497.275 271.381 496.375 270.881 495.275 270.881C494.175 270.881 492.475 270.481 491.475 269.981C490.575 269.481 488.075 268.381 486.075 267.481C482.475 265.981 482.275 265.681 482.275 261.281V256.581L486.575 257.081C491.275 257.681 497.975 261.381 498.775 263.981C499.175 265.081 500.975 265.781 504.575 266.181C507.475 266.481 511.775 267.281 514.275 267.781C516.775 268.381 523.175 268.781 528.575 268.881H538.275V272.381C538.275 276.181 538.275 276.181 529.275 277.381C517.475 278.981 515.275 279.081 515.275 278.081Z" fill="#9664E8"/>
<path d="M544.576 257.38C544.776 254.78 545.376 252.48 545.676 252.18C546.076 251.78 548.976 251.28 552.276 251.08L558.276 250.68V254.58C558.276 258.08 557.876 258.68 554.776 260.18C552.776 261.08 549.576 261.88 547.576 261.88H543.976L544.576 257.38Z" fill="#9664E8"/>
<path d="M326.575 260.18C324.675 259.78 324.275 259.08 324.275 255.78C324.275 251.98 324.375 251.88 328.075 251.88C335.075 251.88 336.375 252.68 336.075 256.78C335.775 260.18 335.575 260.38 332.275 260.48C330.375 260.58 327.775 260.48 326.575 260.18Z" fill="#9664E8"/>
<path d="M472.275 249.98C472.275 245.18 473.675 243.98 480.175 243.18C484.475 242.68 485.275 242.88 485.275 244.28C485.275 245.18 485.775 245.88 486.275 245.88C486.875 245.88 487.275 247.38 487.275 249.28C487.275 253.38 486.175 253.88 478.175 253.88H472.275V249.98Z" fill="#9664E8"/>
<path d="M77.3754 208.28C75.6754 204.68 74.2754 200.18 74.2754 198.28C74.2754 194.98 74.3754 194.88 78.5754 194.88C82.3754 194.88 82.9754 195.28 84.5754 198.58C85.5754 200.58 86.6754 204.98 86.9754 208.48L87.5754 214.88H83.9754C80.5754 214.88 80.3754 214.58 77.3754 208.28Z" fill="#9664E8"/>
<path d="M292.076 197.88C290.876 196.28 289.176 194.88 288.176 194.88C286.976 194.88 286.376 193.68 285.876 190.28C284.876 182.58 284.976 181.88 287.776 181.88C289.576 181.88 290.976 182.98 292.876 186.18C294.376 188.48 296.876 191.98 298.376 193.98C302.376 198.98 302.176 200.88 297.776 200.88C295.076 200.88 293.876 200.18 292.076 197.88Z" fill="#9664E8"/>
<path d="M185.475 186.781C180.775 185.681 178.275 182.281 178.275 176.781V173.581L187.375 174.181C192.475 174.481 196.975 175.181 197.475 175.681C197.975 176.181 198.275 178.981 198.075 181.981L197.775 187.381L193.775 187.581C191.575 187.681 187.875 187.281 185.475 186.781Z" fill="#9664E8"/>
<path d="M219.276 179.481C219.276 177.581 219.776 175.681 220.276 175.381C221.876 174.381 221.476 173.181 219.276 172.581C215.776 171.681 217.076 169.381 222.176 167.581C230.076 164.781 230.276 164.881 230.276 172.681C230.176 181.081 228.976 182.881 223.376 182.881C219.376 182.881 219.276 182.781 219.276 179.481Z" fill="#9664E8"/>
<path d="M278.675 171.48C277.075 169.68 276.075 144.88 276.975 132.88L277.775 123.38L281.675 123.08L285.475 122.78L284.675 133.58C283.675 146.78 283.975 157.68 285.675 165.78C286.375 169.18 286.675 172.08 286.475 172.38C285.375 173.38 279.775 172.78 278.675 171.48Z" fill="#9664E8"/>
<path d="M166.276 150.98C166.276 144.98 165.976 139.38 165.676 138.48C165.176 137.18 165.776 136.88 168.676 136.88C171.576 136.88 172.276 137.28 172.276 138.88C172.276 139.98 172.776 140.88 173.276 140.88C173.976 140.88 174.276 144.58 174.076 151.18L173.776 161.38L170.076 161.68L166.276 161.98V150.98Z" fill="#9664E8"/>
<path d="M396.275 132.08C396.275 128.88 396.775 127.98 398.775 127.08C400.175 126.48 401.275 125.48 401.275 124.88C401.275 124.28 403.875 123.88 407.275 123.88H413.275V127.38C413.275 130.38 412.675 131.18 409.275 133.38C406.575 135.08 403.875 135.88 400.775 135.88H396.275V132.08Z" fill="#9664E8"/>
<path d="M381.075 130.18C380.175 129.98 379.075 128.88 378.775 127.78C378.375 126.78 377.275 125.88 376.175 125.88C374.475 125.88 374.275 125.18 374.275 119.88V113.88H377.275C379.975 113.88 380.275 114.18 380.275 116.88C380.275 123.38 385.175 127.88 388.875 124.78C390.275 123.68 390.375 123.88 390.075 126.98C389.775 130.08 389.475 130.38 386.275 130.58C384.375 130.58 381.975 130.48 381.075 130.18Z" fill="#9664E8"/>
<path d="M538.275 101.38C538.275 97.1804 538.675 96.5804 545.375 90.1804C553.375 82.5804 554.775 81.9805 568.275 81.9805C578.875 81.8805 584.275 83.1804 584.275 85.8804C584.275 88.0804 583.075 88.2804 568.475 88.3804H561.075L552.675 97.1804C545.775 104.28 543.675 105.88 541.275 105.88C538.375 105.88 538.275 105.68 538.275 101.38Z" fill="#9664E8"/>
<path d="M283.975 50.1804C282.875 49.1804 283.175 42.8804 284.275 42.8804C284.875 42.8804 285.275 42.3804 285.275 41.6804C285.275 41.0804 286.375 39.0804 287.875 37.1804C289.875 34.5804 291.075 33.8804 293.875 33.8804C297.075 33.8804 297.275 34.0804 297.275 37.0804C297.275 38.8804 296.075 42.6804 294.575 45.5804C292.175 50.4804 291.675 50.8804 288.275 50.8804C286.275 50.8804 284.275 50.5804 283.975 50.1804Z" fill="#9664E8"/>
<path d="M410.476 35.8804C409.176 34.2804 407.576 32.8804 406.776 32.8804C406.076 32.8804 405.076 31.9804 404.776 30.8804C404.276 29.4804 403.276 28.8804 401.076 28.8804C399.076 28.8804 397.976 28.2804 397.676 27.1804C397.376 26.0804 395.176 24.7804 392.476 23.8804C388.076 22.3804 387.776 22.0804 387.476 18.5804C387.276 16.5804 387.376 14.8804 387.676 14.8804C387.976 14.8804 390.676 15.9804 393.576 17.2804C405.076 22.3804 419.276 33.2804 419.276 36.9804C419.276 38.4804 418.576 38.8804 415.976 38.8804C413.476 38.8804 412.076 38.1804 410.476 35.8804Z" fill="#9664E8"/>
<path d="M176.676 280.38C179.076 279.08 179.776 279.08 180.476 280.08C181.176 281.08 181.376 280.98 180.976 279.88C180.776 279.08 179.076 278.08 177.176 277.78L173.776 277.28L176.776 275.98C178.476 275.28 180.976 274.08 182.476 273.28C183.876 272.48 186.076 271.88 187.276 271.88C188.476 271.88 191.076 270.58 192.976 268.88C194.776 267.28 196.776 265.88 197.276 265.88C198.776 265.88 202.776 261.58 205.176 257.38L207.476 253.38L201.876 258.78C197.276 263.28 195.076 264.68 188.076 266.98C180.876 269.48 178.176 269.78 167.676 269.88C155.476 269.88 148.676 268.48 139.776 264.18C137.076 262.88 136.976 262.88 138.676 264.38C139.776 265.18 140.976 265.88 141.476 265.88C141.876 265.88 142.276 266.58 142.276 267.38C142.276 268.18 142.776 268.88 143.276 268.88C143.876 268.88 144.276 269.58 144.276 270.38C144.276 272.08 142.676 272.38 141.776 270.88C141.476 270.38 139.576 269.88 137.676 269.88C134.976 269.88 134.276 270.28 134.276 271.78C134.276 272.88 133.676 273.88 133.076 274.18C132.376 274.38 132.076 274.88 132.376 275.28C133.276 276.28 136.276 274.88 136.276 273.38C136.276 272.68 137.376 272.18 138.776 272.28C140.176 272.28 141.276 272.98 141.276 273.68C141.276 274.97 141.374 274.98 145.085 275.371C145.115 275.374 145.145 275.377 145.176 275.38C146.476 275.48 147.776 275.98 148.176 276.58C148.476 277.08 149.476 277.48 150.276 277.48C154.076 277.48 160.276 278.98 159.776 279.78C158.976 281.18 161.176 281.68 167.776 281.78C171.376 281.88 174.976 281.28 176.676 280.38ZM331.676 255.78C328.976 254.68 327.276 254.68 327.276 255.78C327.276 256.88 331.276 257.78 332.676 256.98C333.176 256.78 332.776 256.18 331.676 255.78ZM82.8756 207.38C81.9756 205.98 81.6756 204.88 82.2756 204.88C83.6756 204.88 79.9756 197.98 78.5756 197.88C76.8756 197.88 76.7756 197.68 80.4756 205.48C82.1756 209.18 83.8756 211.68 84.0756 211.08C84.2756 210.38 83.7756 208.68 82.8756 207.38ZM295.476 192.68C293.876 190.28 291.576 187.48 290.376 186.38L288.176 184.48L289.076 186.88C289.576 188.28 289.876 189.98 289.676 190.68C289.576 191.38 289.676 191.48 289.976 190.88C290.676 189.38 293.276 189.68 293.276 191.28C293.276 192.88 297.276 198.18 297.976 197.48C298.276 197.28 297.176 195.08 295.476 192.68ZM283.476 165.18C280.376 157.58 279.976 147.38 281.876 130.38C282.376 126.58 282.176 125.68 281.276 126.48C280.476 127.28 280.176 132.68 280.176 143.98C280.276 164.98 280.476 168.18 281.476 166.58C281.976 165.78 282.276 166.28 282.276 167.88C282.276 169.68 282.576 169.98 283.376 169.18C284.276 168.28 284.276 167.28 283.476 165.18ZM406.276 130.38C408.476 128.98 410.276 127.68 410.276 127.48C410.276 127.28 408.976 127.18 407.376 127.28C405.776 127.38 404.676 127.68 404.876 127.98C405.076 128.38 403.876 129.18 402.276 129.88C400.576 130.58 399.276 131.48 399.276 131.98C399.276 133.58 402.276 132.88 406.276 130.38ZM287.276 65.9802C288.376 63.6802 289.776 61.8802 290.276 61.8802C292.876 61.8802 297.276 55.3802 297.276 51.4802C297.276 49.7802 298.276 48.2802 300.576 46.7802C302.276 45.5802 304.876 43.5802 306.276 42.2802C307.676 41.0802 310.576 39.5802 312.776 38.9802C314.976 38.3802 317.676 37.2802 318.776 36.4802C320.276 35.2802 324.176 34.8802 335.276 34.7802L349.776 34.6802L342.276 32.1802C337.776 30.5802 331.476 29.3802 326.476 29.0802C315.876 28.4802 308.476 31.0802 300.976 38.1802C298.176 40.7802 295.476 42.8802 294.876 42.8802C293.376 42.8802 291.376 46.2802 291.276 48.8802C291.276 52.5802 286.176 63.8802 284.576 63.8802C282.876 63.8802 281.276 67.9802 281.276 72.6802V76.3802L283.276 73.1802C284.275 71.4808 286.074 68.1826 287.274 65.9826L287.276 65.9802ZM290.676 44.5802C291.676 42.8802 292.876 40.2802 293.376 38.8802C294.176 36.6802 293.876 36.8802 291.276 39.8802C289.576 41.7802 288.276 43.8802 288.276 44.5802C288.276 45.2802 287.776 45.8802 287.176 45.8802C286.676 45.8802 286.476 46.3802 286.776 46.8802C287.776 48.5802 288.676 47.9802 290.676 44.5802Z" fill="#9664E8"/>
<path fill-rule="evenodd" clip-rule="evenodd" d="M180.476 280.08C179.776 279.08 179.076 279.08 176.676 280.38C174.976 281.28 171.376 281.88 167.776 281.78C161.176 281.68 158.976 281.18 159.776 279.78C160.276 278.98 154.076 277.48 150.276 277.48C149.476 277.48 148.476 277.08 148.176 276.58C147.776 275.98 146.476 275.48 145.176 275.38L145.085 275.371C141.374 274.98 141.276 274.97 141.276 273.68C141.276 272.98 140.176 272.28 138.776 272.28C137.376 272.18 136.276 272.68 136.276 273.38C136.276 274.88 133.276 276.28 132.376 275.28C132.076 274.88 132.376 274.38 133.076 274.18C133.676 273.88 134.276 272.88 134.276 271.78C134.276 270.28 134.976 269.88 137.676 269.88C139.576 269.88 141.476 270.38 141.776 270.88C142.676 272.38 144.276 272.08 144.276 270.38C144.276 269.58 143.876 268.88 143.276 268.88C142.776 268.88 142.276 268.18 142.276 267.38C142.276 266.58 141.876 265.88 141.476 265.88C140.976 265.88 139.776 265.18 138.676 264.38C136.976 262.88 137.076 262.88 139.776 264.18C148.676 268.48 155.476 269.88 167.676 269.88C178.176 269.78 180.876 269.48 188.076 266.98C195.076 264.68 197.276 263.28 201.876 258.78L207.476 253.38L205.176 257.38C202.776 261.58 198.776 265.88 197.276 265.88C196.776 265.88 194.776 267.28 192.976 268.88C191.076 270.58 188.476 271.88 187.276 271.88C186.076 271.88 183.876 272.48 182.476 273.28C180.976 274.08 178.476 275.28 176.776 275.98L173.776 277.28L177.176 277.78C179.076 278.08 180.776 279.08 180.976 279.88C181.376 280.98 181.176 281.08 180.476 280.08ZM327.276 255.78C327.276 254.68 328.976 254.68 331.676 255.78C332.776 256.18 333.176 256.78 332.676 256.98C331.276 257.78 327.276 256.88 327.276 255.78ZM82.2756 204.88C81.6756 204.88 81.9756 205.98 82.8756 207.38C83.7756 208.68 84.2756 210.38 84.0756 211.08C83.8756 211.68 82.1756 209.18 80.4756 205.48C76.7756 197.68 76.8756 197.88 78.5756 197.88C79.9756 197.98 83.6756 204.88 82.2756 204.88ZM290.376 186.38C291.576 187.48 293.876 190.28 295.476 192.68C297.176 195.08 298.276 197.28 297.976 197.48C297.276 198.18 293.276 192.88 293.276 191.28C293.276 189.68 290.676 189.38 289.976 190.88C289.676 191.48 289.576 191.38 289.676 190.68C289.876 189.98 289.576 188.28 289.076 186.88L288.176 184.48L290.376 186.38ZM281.876 130.38C279.976 147.38 280.376 157.58 283.476 165.18C284.276 167.28 284.276 168.28 283.376 169.18C282.576 169.98 282.276 169.68 282.276 167.88C282.276 166.28 281.976 165.78 281.476 166.58C280.476 168.18 280.276 164.98 280.176 143.98C280.176 132.68 280.476 127.28 281.276 126.48C282.176 125.68 282.376 126.58 281.876 130.38ZM410.276 127.48C410.276 127.68 408.476 128.98 406.276 130.38C402.276 132.88 399.276 133.58 399.276 131.98C399.276 131.48 400.576 130.58 402.276 129.88C403.876 129.18 405.076 128.38 404.876 127.98C404.676 127.68 405.776 127.38 407.376 127.28C408.976 127.18 410.276 127.28 410.276 127.48ZM290.276 61.8802C289.776 61.8802 288.376 63.6802 287.276 65.9802L287.274 65.9826C286.074 68.1826 284.275 71.4808 283.276 73.1802L281.276 76.3802V72.6802C281.276 67.9802 282.876 63.8802 284.576 63.8802C286.176 63.8802 291.276 52.5802 291.276 48.8802C291.376 46.2802 293.376 42.8802 294.876 42.8802C295.476 42.8802 298.176 40.7802 300.976 38.1802C308.476 31.0802 315.876 28.4802 326.476 29.0802C331.476 29.3802 337.776 30.5802 342.276 32.1802L349.776 34.6802L335.276 34.7802C324.176 34.8802 320.276 35.2802 318.776 36.4802C317.676 37.2802 314.976 38.3802 312.776 38.9802C310.576 39.5802 307.676 41.0802 306.276 42.2802C304.876 43.5802 302.276 45.5802 300.576 46.7802C298.276 48.2802 297.276 49.7802 297.276 51.4802C297.276 55.3802 292.876 61.8802 290.276 61.8802ZM293.376 38.8802C292.876 40.2802 291.676 42.8802 290.676 44.5802C288.676 47.9802 287.776 48.5802 286.776 46.8802C286.476 46.3802 286.676 45.8802 287.176 45.8802C287.776 45.8802 288.276 45.2802 288.276 44.5802C288.276 43.8802 289.576 41.7802 291.276 39.8802C293.876 36.8802 294.176 36.6802 293.376 38.8802Z" fill="#9664E8"/>
<path fill-rule="evenodd" clip-rule="evenodd" d="M167.376 292.48C163.876 291.18 164.576 289.18 168.176 290.38C169.276 290.68 170.376 290.48 170.776 289.88C171.176 289.28 170.276 288.88 168.576 288.78C163.576 288.58 156.776 287.88 155.576 287.38C154.876 287.18 154.076 287.48 153.676 288.08C153.276 288.78 153.376 288.88 154.076 288.48C154.776 288.08 155.276 288.18 155.276 288.68C155.276 289.28 156.976 290.08 159.076 290.68C162.57 291.679 162.476 291.68 156.304 291.78L156.276 291.78C150.276 291.78 148.976 291.38 139.776 286.58C132.176 282.58 129.676 280.78 129.476 279.08C129.176 277.38 128.476 276.88 126.176 276.88C123.876 276.88 121.476 274.98 113.576 267.08C108.176 261.68 102.276 255.28 100.576 252.78C91.6756 240.38 80.2756 217.78 80.2756 212.68C80.2756 211.18 79.8756 209.78 79.3756 209.48C78.9756 209.18 78.2756 207.08 77.8756 204.88C77.3756 201.88 76.7756 200.88 75.3756 200.88C74.0756 200.88 72.8756 199.48 71.5756 196.38C70.5756 193.88 69.4756 191.88 69.0756 191.88C68.6756 191.88 66.1756 189.68 63.4756 186.98C54.9756 178.48 46.1756 175.48 36.4756 177.78C28.1756 179.78 22.7756 187.18 24.5756 194.08C24.9756 195.28 24.7756 196.78 24.1756 197.48C22.5756 199.48 24.8756 203.48 28.7756 205.38C31.7756 206.68 34.4756 206.98 41.6756 206.78C41.6756 206.78 46.7758 206.38 48.7756 208.38C50.7754 210.381 51.7754 212.68 51.7754 212.68C52.0754 216.58 51.2756 214.88 48.7756 214.88C45.4756 214.88 42.2756 216.58 42.2756 218.28C42.2756 220.08 37.0756 221.88 31.6756 221.88C26.8756 221.88 15.7756 218.08 11.2756 214.88C9.77561 213.78 7.97561 212.88 7.47561 212.88C6.17561 212.88 2.47561 202.98 1.07561 195.88C-0.524387 187.48 -0.324387 173.18 1.57561 166.78C2.47561 163.68 4.77561 158.98 6.57561 156.28C11.9756 148.48 24.8756 139.88 32.7756 138.78C32.7756 138.78 44.0224 136.506 51.2754 136.88C59.2706 137.293 71.2756 141.38 71.2756 141.38C85.7756 147.78 96.0756 157.38 115.576 182.58C128.776 199.68 136.276 206.98 146.576 213.08C158.876 220.28 164.576 221.88 178.176 221.88C186.776 221.88 192.876 220.38 192.876 220.38C192.876 220.38 196.077 219.568 198.076 218.88C200.146 218.168 203.276 216.78 203.276 216.78C203.276 216.78 213.314 212.74 219.976 210.88C221.454 210.468 222.274 210.195 223.776 209.88C230.504 208.47 236.076 208.68 241.376 210.28C246.876 211.98 252.076 214.48 254.576 216.68C256.876 218.68 256.776 217.38 254.176 213.78C251.876 210.48 252.676 210.08 256.276 212.58L258.676 214.28L256.076 210.78C248.376 200.58 240.276 184.08 240.276 178.48C240.276 176.08 239.676 174.58 238.176 173.58C235.876 171.98 232.976 162.18 231.276 150.38C229.876 141.28 229.876 112.18 231.176 99.5802L231.291 98.5048C234.731 66.333 237.363 41.7272 262.076 19.7802C265.592 16.6575 271.576 12.3802 271.576 12.3802L277.476 9.0802L290.276 3.88021C290.276 3.88021 292.642 3.1125 294.176 2.68021C312.19 -2.39716 329.875 0.885636 342.253 3.1833L342.776 3.2802C362.776 6.8802 394.876 16.0802 393.776 17.9802C393.476 18.3802 392.576 18.5802 391.776 18.1802C390.976 17.8802 390.276 17.9802 390.276 18.2802C390.276 19.2802 397.576 21.9802 398.976 21.4802C399.776 21.1802 400.276 21.6802 400.276 22.8802C400.276 23.8802 400.776 25.0802 401.476 25.4802C402.176 25.8802 402.276 25.7802 401.876 25.0802C400.676 23.0802 404.576 23.7802 407.276 25.9802C408.676 27.0802 409.176 27.7802 408.576 27.3802C407.776 26.9802 407.476 27.2802 407.876 28.1802C408.376 29.5802 411.776 31.1802 413.476 30.9802C414.776 30.8802 421.876 38.8802 425.176 44.2802C426.976 47.3802 429.876 53.7802 431.676 58.5802C434.776 67.3802 434.776 67.4802 434.776 87.3802C434.776 109.48 434.076 113.28 429.176 119.18C424.876 124.48 414.576 131.08 409.776 131.78C406.576 132.28 405.676 132.88 405.476 134.68C405.176 136.58 404.476 136.88 401.076 136.88C398.276 136.88 396.576 137.48 395.376 138.98C393.876 140.88 399.275 150.08 384.275 150.38C368.275 150.78 361.075 150.08 360.275 147.88C357.675 140.98 355.026 134.901 358.176 127.58C360.166 122.954 366.676 117.88 366.676 117.88L371.776 113.88C371.776 113.88 376.576 109.88 377.976 109.88C380.076 109.88 380.276 110.38 380.276 114.48C380.276 118.48 380.076 118.98 378.776 117.88C377.476 116.78 377.276 117.08 377.276 119.88C377.276 122.38 377.676 122.98 378.776 122.48C379.776 122.08 380.676 122.78 381.476 124.28C383.376 128.48 385.676 128.08 391.176 122.48C397.776 115.78 402.676 105.48 401.976 99.5802C400.276 84.0802 396.076 74.7802 386.776 65.9802C377.276 57.0802 368.276 53.4802 352.676 52.2802C341.276 51.3802 333.775 48.8804 325.276 54.4802C316.776 60.08 318.275 59.8804 316.275 61.8804C314.275 63.8804 310.787 69.8804 308.876 72.7802C299.976 86.2802 290.276 108.48 287.176 122.38C286.476 125.68 285.276 128.88 284.576 129.38C283.576 130.08 283.176 133.88 283.076 142.88C282.876 153.68 283.276 156.88 285.676 166.38C288.076 175.68 292.376 187.08 294.276 188.88C294.576 189.18 296.576 191.68 298.776 194.38C308.276 206.48 323.476 220.48 332.876 225.98C342.276 231.48 342.902 232.033 349.775 233.38C356.649 234.728 368.076 232.88 368.076 232.88C372.276 232.38 377.776 231.48 380.276 230.98C382.776 230.38 387.776 229.98 391.476 229.88H398.276L397.576 234.38C397.076 238.38 396.076 239.78 390.076 245.68C386.276 249.38 379.576 254.48 374.976 257.08L366.776 261.78H352.076C323.976 261.98 288.275 249.38 288.275 249.38C288.275 249.38 288.776 250.78 286.776 248.78C286.076 248.08 283.775 247.074 280.275 247.08C277.513 247.085 276.778 249.563 275.275 251.88C273.07 255.283 275.275 258.381 272.275 260.88C269.275 263.38 267.776 255.58 264.576 253.98C261.276 252.28 255.176 249.98 250.976 248.78C241.876 246.08 238.076 246.78 231.576 252.38C229.176 254.38 226.376 255.88 224.876 255.88C222.676 255.88 222.276 256.28 222.276 258.88C222.276 262.38 218.076 268.88 214.676 270.68C213.276 271.48 212.276 272.88 212.276 274.18C212.276 277.98 206.676 283.58 199.076 287.38C195.176 289.28 191.276 291.48 190.476 292.08C188.476 293.78 171.576 294.08 167.376 292.48ZM180.476 280.08C179.776 279.08 179.076 279.08 176.676 280.38C174.976 281.28 171.376 281.88 167.776 281.78C161.176 281.68 158.976 281.18 159.776 279.78C160.276 278.98 154.076 277.48 150.276 277.48C149.476 277.48 148.476 277.08 148.176 276.58C147.776 275.98 146.476 275.48 145.176 275.38L145.085 275.371C141.374 274.98 141.276 274.97 141.276 273.68C141.276 272.98 140.176 272.28 138.776 272.28C137.376 272.18 136.276 272.68 136.276 273.38C136.276 274.88 133.276 276.28 132.376 275.28C132.076 274.88 132.376 274.38 133.076 274.18C133.676 273.88 134.276 272.88 134.276 271.78C134.276 270.28 134.976 269.88 137.676 269.88C139.576 269.88 141.476 270.38 141.776 270.88C142.676 272.38 144.276 272.08 144.276 270.38C144.276 269.58 143.876 268.88 143.276 268.88C142.776 268.88 142.276 268.18 142.276 267.38C142.276 266.58 141.876 265.88 141.476 265.88C140.976 265.88 139.776 265.18 138.676 264.38C136.976 262.88 137.076 262.88 139.776 264.18C148.676 268.48 155.476 269.88 167.676 269.88C178.176 269.78 180.876 269.48 188.076 266.98C195.076 264.68 197.276 263.28 201.876 258.78L207.476 253.38L205.176 257.38C202.776 261.58 198.776 265.88 197.276 265.88C196.776 265.88 194.776 267.28 192.976 268.88C191.076 270.58 188.476 271.88 187.276 271.88C186.076 271.88 183.876 272.48 182.476 273.28C180.976 274.08 178.476 275.28 176.776 275.98L173.776 277.28L177.176 277.78C179.076 278.08 180.776 279.08 180.976 279.88C181.376 280.98 181.176 281.08 180.476 280.08ZM327.276 255.78C327.276 254.68 328.976 254.68 331.676 255.78C332.776 256.18 333.176 256.78 332.676 256.98C331.276 257.78 327.276 256.88 327.276 255.78ZM82.2756 204.88C81.6756 204.88 81.9756 205.98 82.8756 207.38C83.7756 208.68 84.2756 210.38 84.0756 211.08C83.8756 211.68 82.1756 209.18 80.4756 205.48C76.7756 197.68 76.8756 197.88 78.5756 197.88C79.9756 197.98 83.6756 204.88 82.2756 204.88ZM290.376 186.38C291.576 187.48 293.876 190.28 295.476 192.68C297.176 195.08 298.276 197.28 297.976 197.48C297.276 198.18 293.276 192.88 293.276 191.28C293.276 189.68 290.676 189.38 289.976 190.88C289.676 191.48 289.576 191.38 289.676 190.68C289.876 189.98 289.576 188.28 289.076 186.88L288.176 184.48L290.376 186.38ZM281.876 130.38C279.976 147.38 280.376 157.58 283.476 165.18C284.276 167.28 284.276 168.28 283.376 169.18C282.576 169.98 282.276 169.68 282.276 167.88C282.276 166.28 281.976 165.78 281.476 166.58C280.476 168.18 280.276 164.98 280.176 143.98C280.176 132.68 280.476 127.28 281.276 126.48C282.176 125.68 282.376 126.58 281.876 130.38ZM410.276 127.48C410.276 127.68 408.476 128.98 406.276 130.38C402.276 132.88 399.276 133.58 399.276 131.98C399.276 131.48 400.576 130.58 402.276 129.88C403.876 129.18 405.076 128.38 404.876 127.98C404.676 127.68 405.776 127.38 407.376 127.28C408.976 127.18 410.276 127.28 410.276 127.48ZM290.276 61.8802C289.776 61.8802 288.376 63.6802 287.276 65.9802L287.274 65.9826C286.074 68.1826 284.275 71.4808 283.276 73.1802L281.276 76.3802V72.6802C281.276 67.9802 282.876 63.8802 284.576 63.8802C286.176 63.8802 291.276 52.5802 291.276 48.8802C291.376 46.2802 293.376 42.8802 294.876 42.8802C295.476 42.8802 298.176 40.7802 300.976 38.1802C308.476 31.0802 315.876 28.4802 326.476 29.0802C331.476 29.3802 337.776 30.5802 342.276 32.1802L349.776 34.6802L335.276 34.7802C324.176 34.8802 320.276 35.2802 318.776 36.4802C317.676 37.2802 314.976 38.3802 312.776 38.9802C310.576 39.5802 307.676 41.0802 306.276 42.2802C304.876 43.5802 302.276 45.5802 300.576 46.7802C298.276 48.2802 297.276 49.7802 297.276 51.4802C297.276 55.3802 292.876 61.8802 290.276 61.8802ZM293.376 38.8802C292.876 40.2802 291.676 42.8802 290.676 44.5802C288.676 47.9802 287.776 48.5802 286.776 46.8802C286.476 46.3802 286.676 45.8802 287.176 45.8802C287.776 45.8802 288.276 45.2802 288.276 44.5802C288.276 43.8802 289.576 41.7802 291.276 39.8802C293.876 36.8802 294.176 36.6802 293.376 38.8802Z" fill="#9664E8"/>
<path d="M152.476 275.48C145.876 272.98 142.976 271.18 147.276 272.18C159.176 274.98 163.276 276.18 163.276 276.98C163.276 278.48 159.076 277.88 152.476 275.48Z" fill="#9664E8"/>
<path d="M551.776 278.38C554.476 277.68 554.576 277.58 552.776 276.88C549.076 275.28 546.376 275.68 546.576 277.78C546.576 278.78 547.176 279.48 547.776 279.38C548.276 279.18 550.176 278.78 551.776 278.38ZM524.476 274.48C526.276 274.18 529.276 273.68 531.076 273.48C537.476 272.58 535.276 272.18 522.576 271.58C515.576 271.38 508.376 270.58 506.576 269.88C504.776 269.28 502.576 268.88 501.576 269.18C498.576 269.88 505.976 272.58 512.976 273.38C517.076 273.78 519.076 274.48 518.576 275.18C518.176 275.78 518.576 275.98 519.576 275.58C520.376 275.28 522.676 274.78 524.476 274.48ZM531.176 269.08C531.576 268.38 534.276 267.48 537.176 266.98C539.976 266.58 542.676 265.88 543.076 265.48C543.476 264.98 541.576 265.08 538.776 265.58C536.076 265.98 527.376 266.38 519.476 266.38C506.276 266.38 503.676 266.78 506.376 268.38C510.276 270.78 529.776 271.38 531.176 269.08ZM495.676 266.58C495.476 265.88 493.776 264.38 491.976 263.28C486.976 260.28 485.576 259.88 485.576 261.58C485.576 262.38 487.176 263.78 489.176 264.58C491.176 265.48 493.476 266.48 494.276 266.98C496.276 268.08 496.276 268.08 495.676 266.58ZM555.276 254.88C555.276 254.48 554.276 254.28 553.076 254.48C551.776 254.58 550.176 254.78 549.376 254.78C548.276 254.88 548.276 255.18 549.276 256.28C550.176 257.48 550.976 257.58 552.876 256.68C554.176 256.08 555.276 255.28 555.276 254.88ZM477.276 249.18C477.276 247.68 477.476 247.68 479.176 249.28C480.776 250.68 481.476 250.78 482.976 249.88C484.376 248.98 484.376 248.88 483.076 249.28C480.876 249.98 480.076 248.88 481.576 247.08C482.576 245.78 482.476 245.68 480.576 246.78C479.276 247.38 478.276 247.68 478.276 247.28C478.276 246.98 477.576 247.18 476.776 247.88C475.076 249.28 474.776 250.88 476.276 250.88C476.876 250.88 477.276 250.18 477.276 249.18Z" fill="#9664E8"/>
<path fill-rule="evenodd" clip-rule="evenodd" d="M552.776 276.88C554.576 277.58 554.476 277.68 551.776 278.38C550.176 278.78 548.276 279.18 547.776 279.38C547.176 279.48 546.576 278.78 546.576 277.78C546.376 275.68 549.076 275.28 552.776 276.88ZM531.076 273.48C529.276 273.68 526.276 274.18 524.476 274.48C522.676 274.78 520.376 275.28 519.576 275.58C518.576 275.98 518.176 275.78 518.576 275.18C519.076 274.48 517.076 273.78 512.976 273.38C505.976 272.58 498.576 269.88 501.576 269.18C502.576 268.88 504.776 269.28 506.576 269.88C508.376 270.58 515.576 271.38 522.576 271.58C535.276 272.18 537.476 272.58 531.076 273.48ZM537.176 266.98C534.276 267.48 531.576 268.38 531.176 269.08C529.776 271.38 510.276 270.78 506.376 268.38C503.676 266.78 506.276 266.38 519.476 266.38C527.376 266.38 536.076 265.98 538.776 265.58C541.576 265.08 543.476 264.98 543.076 265.48C542.676 265.88 539.976 266.58 537.176 266.98ZM491.976 263.28C493.776 264.38 495.476 265.88 495.676 266.58C496.276 268.08 496.276 268.08 494.276 266.98C493.476 266.48 491.176 265.48 489.176 264.58C487.176 263.78 485.576 262.38 485.576 261.58C485.576 259.88 486.976 260.28 491.976 263.28ZM553.076 254.48C554.276 254.28 555.276 254.48 555.276 254.88C555.276 255.28 554.176 256.08 552.876 256.68C550.976 257.58 550.176 257.48 549.276 256.28C548.276 255.18 548.276 254.88 549.376 254.78C550.176 254.78 551.776 254.58 553.076 254.48ZM479.176 249.28C477.476 247.68 477.276 247.68 477.276 249.18C477.276 250.18 476.876 250.88 476.276 250.88C474.776 250.88 475.076 249.28 476.776 247.88C477.576 247.18 478.276 246.98 478.276 247.28C478.276 247.68 479.276 247.38 480.576 246.78C482.476 245.68 482.576 245.78 481.576 247.08C480.076 248.88 480.876 249.98 483.076 249.28C484.376 248.88 484.376 248.98 482.976 249.88C481.476 250.78 480.776 250.68 479.176 249.28Z" fill="#9664E8"/>
<path fill-rule="evenodd" clip-rule="evenodd" d="M499.776 285.38C491.576 283.48 483.776 280.28 478.876 276.98C474.776 274.18 472.876 272.18 458.276 255.88C446.776 242.98 434.676 234.98 421.376 231.28C415.676 229.68 414.476 234.38 412.776 235.88C409.676 238.68 408.775 233.88 407.776 229.18C407.32 227.038 406.403 225.854 406.676 223.68C406.985 221.219 407.676 220.38 409.676 218.08C414.076 213.28 423.806 212.682 433.276 212.48C440.128 212.335 443.986 213.29 450.676 214.78C468.933 218.848 475.206 232.554 493.576 236.08C507.076 238.672 515.684 239.974 528.776 235.78C529.799 235.453 530.382 235.289 531.376 234.88C538.685 231.876 542.476 225.28 545.176 220.08C548.576 213.48 549.776 202.58 547.976 195.38C544.276 180.38 540.876 169.18 538.076 162.58C536.476 158.58 532.175 156.08 531.775 153.88C531.375 151.68 529.775 149.38 528.275 142.88C526.775 136.38 526.058 131.894 526.275 123.38C526.441 116.865 528.076 110.98 530.476 106.38C531.976 103.68 534.076 100.48 537.176 97.3804C540.275 94.2808 545.758 86.7462 554.275 83.3806C565.39 78.9888 574.775 80.6973 585.276 84.3804C595.776 88.0635 619.076 104.28 621.676 111.48C622.376 113.58 625.376 119.18 628.176 123.78C630.976 128.38 633.276 132.58 633.276 132.98C633.276 133.38 631.376 134.58 629.076 135.68C626.676 136.78 623.876 138.68 622.876 139.78C619.476 143.48 614.276 145.38 607.276 145.38C599.276 145.38 594.176 143.08 592.576 138.88C591.576 136.28 591.676 135.68 593.576 134.38C594.776 133.58 596.776 132.88 598.176 132.88C600.476 132.88 600.476 132.78 598.876 130.98C597.676 129.58 597.476 128.88 598.276 128.38C600.076 127.28 593.776 121.28 588.176 118.88C583.776 117.08 582.976 116.98 579.976 118.18C574.276 120.58 570.976 127.68 569.776 139.98C569.776 139.98 568.489 144.598 569.076 147.48C569.871 151.387 574.876 155.88 574.876 155.88C580.376 163.98 589.276 181.98 592.676 192.08C598.976 210.88 600.076 226.18 595.976 237.88C590.876 252.48 581.876 264.68 569.576 273.58C562.176 278.98 558.276 280.88 555.076 280.88C553.976 280.88 552.476 281.68 551.776 282.58C550.776 283.88 548.076 284.38 538.676 284.98C507.876 286.88 505.776 286.88 499.776 285.38ZM552.776 276.88C554.576 277.58 554.476 277.68 551.776 278.38C550.176 278.78 548.276 279.18 547.776 279.38C547.176 279.48 546.576 278.78 546.576 277.78C546.376 275.68 549.076 275.28 552.776 276.88ZM531.076 273.48C529.276 273.68 526.276 274.18 524.476 274.48C522.676 274.78 520.376 275.28 519.576 275.58C518.576 275.98 518.176 275.78 518.576 275.18C519.076 274.48 517.076 273.78 512.976 273.38C505.976 272.58 498.576 269.88 501.576 269.18C502.576 268.88 504.776 269.28 506.576 269.88C508.376 270.58 515.576 271.38 522.576 271.58C535.276 272.18 537.476 272.58 531.076 273.48ZM537.176 266.98C534.276 267.48 531.576 268.38 531.176 269.08C529.776 271.38 510.276 270.78 506.376 268.38C503.676 266.78 506.276 266.38 519.476 266.38C527.376 266.38 536.076 265.98 538.776 265.58C541.576 265.08 543.476 264.98 543.076 265.48C542.676 265.88 539.976 266.58 537.176 266.98ZM491.976 263.28C493.776 264.38 495.476 265.88 495.676 266.58C496.276 268.08 496.276 268.08 494.276 266.98C493.476 266.48 491.176 265.48 489.176 264.58C487.176 263.78 485.576 262.38 485.576 261.58C485.576 259.88 486.976 260.28 491.976 263.28ZM553.076 254.48C554.276 254.28 555.276 254.48 555.276 254.88C555.276 255.28 554.176 256.08 552.876 256.68C550.976 257.58 550.176 257.48 549.276 256.28C548.276 255.18 548.276 254.88 549.376 254.78C550.176 254.78 551.776 254.58 553.076 254.48ZM479.176 249.28C477.476 247.68 477.276 247.68 477.276 249.18C477.276 250.18 476.876 250.88 476.276 250.88C474.776 250.88 475.076 249.28 476.776 247.88C477.576 247.18 478.276 246.98 478.276 247.28C478.276 247.68 479.276 247.38 480.576 246.78C482.476 245.68 482.576 245.78 481.576 247.08C480.076 248.88 480.876 249.98 483.076 249.28C484.376 248.88 484.376 248.98 482.976 249.88C481.476 250.78 480.776 250.68 479.176 249.28Z" fill="#9664E8"/>
<path d="M444.275 210.28C441.275 209.48 440.675 209.08 442.275 209.08C443.675 209.08 446.575 209.58 448.775 210.38C453.875 212.08 450.175 211.98 444.275 210.28Z" fill="#9664E8"/>
<path d="M455.275 91.8802C455.275 88.5802 454.975 87.8802 453.275 87.8802C449.975 87.8802 450.975 85.8801 457.575 79.1801C463.475 73.2801 464.175 72.8803 468.275 70.8803C470.775 69.8802 471.275 69.3804 473.775 68.3803C476.275 67.3802 482.912 65.6434 488.775 66.3803C494.856 67.1444 507.275 69.8806 506.275 72.3804C505.275 74.8802 463.875 88.1802 464.175 91.8802L464.475 95.8802H455.275V91.8802Z" fill="#9664E8"/>
<path d="M426.475 199.38C426.775 195.68 427.275 195.08 433.775 190.78C442.275 185.18 453.375 174.68 455.775 169.98C458.875 163.88 458.775 156.68 455.375 143.88C453.575 137.58 451.275 128.98 450.175 124.88C446.375 110.58 446.675 96.1802 450.975 87.6802C451.975 85.5802 453.075 84.8802 455.275 84.8802C458.075 84.8802 458.275 85.0802 458.275 88.8802C458.275 91.8802 458.675 92.8802 459.875 92.8802C461.075 92.8802 461.275 92.4802 460.575 91.6802C460.075 90.9802 459.975 89.0802 460.375 87.3802C460.675 85.7802 461.075 84.7802 461.175 85.2802C461.175 85.7802 462.275 85.2802 463.575 84.1802C466.775 81.1802 474.775 76.8802 477.175 76.8802C478.275 76.8802 480.475 75.7802 482.075 74.3802C483.775 72.9802 485.775 71.8802 486.575 71.8802C487.375 71.8802 489.175 70.9802 490.575 69.8802C493.875 67.2802 495.475 67.3802 504.275 70.4802C513.975 73.8802 516.975 75.4802 517.675 77.6802C518.775 81.0802 519.075 95.2802 518.075 97.3802C517.175 99.4802 512.075 102.88 509.875 102.88C509.175 102.88 507.775 103.78 506.775 104.88C505.775 105.98 504.175 106.88 503.175 106.88C501.575 106.88 501.375 106.28 501.875 101.98C502.375 97.0802 502.375 96.9802 499.875 97.4802C497.875 97.7802 497.275 97.4802 497.275 96.0802C497.275 95.0802 497.775 93.7802 498.475 93.0802C499.475 92.0802 499.375 91.5802 498.175 90.3802C496.075 88.2802 491.375 89.3802 486.875 93.0802C480.975 97.8802 479.975 100.88 480.175 112.58C480.375 121.58 480.775 123.98 484.175 133.58C487.675 143.38 491.475 158.08 494.475 173.18C495.875 180.28 494.975 182.58 486.375 193.08C476.675 205.08 480.175 203.98 451.375 203.68L426.175 203.38L426.475 199.38Z" fill="#9664E8"/>
<path d="M188.575 187.18C186.775 186.98 185.275 186.38 185.275 185.78C185.275 185.28 184.175 184.88 182.775 184.88C177.875 184.88 172.275 180.58 167.875 173.58C165.475 169.68 166.275 147.88 166.275 146.38C166.275 144.88 166.975 145.88 166.175 141.88C164.875 134.48 163.175 121.78 163.375 119.98C163.675 116.78 163.275 115.88 161.275 115.88C160.175 115.88 157.875 114.98 156.075 113.88C148.875 109.58 138.775 113.18 134.775 121.48C133.275 124.58 133.275 125.28 134.575 127.28C135.375 128.48 136.275 130.58 136.475 131.98C136.775 134.58 138.075 134.78 147.375 133.38C151.975 132.68 151.975 132.68 152.675 135.88C153.675 140.98 153.375 146.38 152.075 147.68C149.975 149.78 139.075 149.08 130.575 146.38C126.275 144.98 122.175 143.48 121.375 142.98C120.475 142.38 119.275 142.48 118.075 143.18C115.575 144.78 114.575 143.08 113.675 136.08C112.775 128.38 113.975 118.18 116.675 112.38C119.075 107.08 121.677 103.811 126.475 99.8803C128.344 98.3495 131.575 96.3803 131.575 96.3803C131.575 96.3803 134.924 94.0176 137.275 92.8803C138.346 92.3624 138.957 92.0866 140.075 91.6803C145.233 89.8064 148.794 89.1264 154.275 88.8804C159.269 88.6563 162.053 89.0624 166.875 90.3803C170.514 91.3749 171.775 92.3804 175.475 94.7803C179.175 97.1803 184.875 100.38 188.475 104.78C195.675 113.78 195.575 113.68 196.375 133.38C197.075 152.38 197.775 155.68 202.375 162.48C205.475 166.98 209.275 168.88 215.175 168.88C217.175 168.88 220.475 169.18 222.575 169.48C226.875 170.28 227.275 171.78 224.275 176.68C222.975 178.78 222.675 179.88 223.575 179.88C224.275 179.88 225.375 178.98 226.075 177.88C226.775 176.78 227.775 175.88 228.275 175.88C228.875 175.88 229.275 176.78 229.275 177.88C229.275 178.98 228.875 179.88 228.275 179.88C227.775 179.88 227.275 180.78 227.275 181.88C227.275 183.08 225.975 184.68 224.075 185.88C221.175 187.68 219.175 187.88 206.275 187.68C198.275 187.68 190.275 187.38 188.575 187.18Z" fill="#9664E8"/>
<path d="M548.475 197.48C547.075 190.48 547.075 189.88 548.075 189.88C549.775 189.88 551.275 195.68 550.475 199.48L549.675 203.38L548.475 197.48Z" fill="#855DD8"/>
<path d="M457.875 153.88C457.475 151.38 455.375 143.38 453.275 136.18C451.175 128.88 448.875 119.58 448.175 115.38C446.875 107.18 447.375 95.3804 449.175 93.5804C451.075 91.6804 451.575 93.6804 450.275 98.0804C448.975 102.98 448.975 117.18 450.375 117.68C450.875 117.88 451.275 118.78 451.275 119.58C451.275 120.38 451.975 123.18 452.775 125.78C453.575 128.28 454.675 132.98 455.275 136.18C455.875 139.28 456.875 141.88 457.375 141.88C457.975 141.88 458.175 142.78 457.775 143.88C457.475 144.88 457.675 147.48 458.275 149.58C458.975 151.78 459.275 154.58 459.075 155.88C458.775 157.78 458.475 157.28 457.875 153.88Z" fill="#855DD8"/>
<path d="M371.976 113.78C378.276 107.38 380.276 107.58 380.276 114.58C380.276 119.18 380.176 119.28 378.676 117.08C377.876 115.88 377.476 114.38 377.776 113.88C378.076 113.28 377.976 112.88 377.376 112.88C375.776 112.88 369.276 116.98 369.276 117.98C369.276 118.48 368.676 118.88 368.076 118.88C367.376 118.88 369.076 116.58 371.976 113.78Z" fill="#855DD8"/>
<path d="M429.875 110.18C432.375 98.7804 432.775 95.4804 433.075 83.6804C433.175 79.4804 433.675 76.8804 434.375 76.8804C435.175 76.8804 435.375 81.3804 434.975 92.6804C434.375 110.18 433.875 112.88 431.175 112.88C429.575 112.88 429.375 112.38 429.875 110.18Z" fill="#855DD8"/>
<path d="M512.275 97.5804C516.975 93.7804 518.175 86.0804 514.975 78.6804C513.775 75.8804 512.675 74.8804 510.075 74.3804C508.275 73.9804 505.675 73.1804 504.275 72.5804C500.075 70.8804 496.175 70.6804 494.475 72.0804C492.375 73.7804 478.275 73.3804 478.275 71.5804C478.375 69.7804 485.075 65.8804 488.175 65.8804C491.075 65.8804 509.375 71.8804 514.275 74.3804C517.875 76.1804 518.175 77.2804 518.775 89.1804L519.275 98.8804H515.075C511.475 98.7804 511.075 98.5804 512.275 97.5804Z" fill="#855DD8"/>
<path d="M154.475 304.38C151.075 303.58 144.875 301.38 140.875 299.48L133.275 295.38L132.875 289.58C132.175 283.38 132.675 279.88 134.375 279.88C135.975 279.88 135.776 280.381 140.275 282.88C141.776 284.381 142.875 286.48 147.975 288.68C152.075 290.38 156.075 290.98 166.775 291.58C175.675 291.98 181.075 291.78 182.575 291.08C183.775 290.58 185.475 289.78 186.275 289.48C187.075 289.18 191.575 286.88 196.175 284.38C200.775 281.38 202.49 279.791 205.775 276.08C209.95 271.367 211.575 267.28 214.275 262.38C215.975 259.28 222.675 250.98 232.775 248.38C242.876 245.78 253.718 246.316 264.775 250.88C268.313 252.341 273.375 255.58 273.375 255.58C273.375 255.58 274.775 259.88 271.275 261.88C267.775 263.88 255.875 257.18 249.675 255.88C237.875 253.38 228.275 259.48 217.575 276.08C212.475 283.98 209.345 290.032 200.775 294.88C199.407 295.654 197.175 296.68 197.175 296.68L189.775 300.38C189.775 300.38 185.897 302.41 183.275 303.38C172.72 307.284 161.775 305.98 154.475 304.38Z" fill="#461C95"/>
<path fill-rule="evenodd" clip-rule="evenodd" d="M415.086 236.894C415.031 236.895 414.977 236.896 414.922 236.897Z" fill="#461C95"/>
<path d="M415.086 236.894L414.922 236.897C411.979 236.951 409.72 236.993 408.675 234.38C408.175 231.68 410.275 231.38 410.275 231.38C410.275 231.38 415.407 230.021 418.775 229.88C425.204 229.612 427.775 230.38 434.875 233.38C435.774 233.76 436.953 234.589 438.275 235.38C445.897 239.94 450.407 242.249 457.275 247.88C468.625 257.187 468.822 269.479 481.775 276.38C484.739 277.96 489.675 279.78 489.675 279.78C489.675 279.78 498.675 283.48 517.175 283.68C522.58 283.75 526.008 283.997 528.557 284.18C533.315 284.522 535.005 284.644 540.775 282.98C543.375 282.231 545.875 281.28 547.275 280.58C548.675 279.88 552.075 278.48 554.775 277.48C557.575 276.48 563.375 272.88 567.775 269.58C572.175 266.28 574.709 266.466 578.275 263.28C582.213 259.763 583.514 256.881 586.275 252.38C588.468 248.807 591.275 242.88 591.275 242.88C591.275 242.88 596.375 219.88 597.275 219.88C598.775 219.88 598.975 222.48 598.175 231.38C596.675 248.68 591.675 259.18 578.375 273.08C577.122 274.407 576.139 275.492 575.301 276.417C572.728 279.256 571.512 280.599 567.975 282.88C567.084 283.455 566.486 283.79 565.686 284.238L565.449 284.37C565.33 284.437 565.206 284.507 565.075 284.58C559.261 287.861 555.401 289.348 549.749 291.525C548.963 291.828 548.141 292.144 547.275 292.48C546.709 292.7 546.204 292.9 545.726 293.089L545.722 293.091L545.709 293.096C544.061 293.749 542.774 294.258 540.775 294.88C531.761 297.687 522.175 297.88 516.775 297.78C514.575 297.68 510.075 297.28 506.775 296.78C498.475 295.58 489.575 292.38 482.675 288.28C475.275 283.88 473.475 282.18 465.975 272.88C457.275 262.08 451.675 256.38 444.275 250.98C433.475 242.88 424.575 236.88 416.275 236.88C415.866 236.88 415.474 236.887 415.086 236.894Z" fill="#461C95"/>
<path d="M148.875 271.78C147.875 271.18 145.575 270.48 143.775 270.38C140.375 270.08 136.375 268.18 132.475 265.18L130.775 263.38L126.275 257.48L135.775 259.38C135.775 259.38 147.575 263.18 151.175 264.48C154.775 265.68 157.675 267.18 157.575 267.78C157.375 268.38 158.175 268.88 159.275 268.88C161.575 268.88 161.875 269.88 160.075 271.68C158.575 273.18 151.475 273.18 148.875 271.78Z" fill="#461C95"/>
<path d="M160.275 276.88C151.637 275.334 146.61 272.881 139.275 268.88C133.775 265.88 126.275 257.38 126.275 257.38C126.275 257.38 149.787 265.047 158.275 266.08C166.227 267.049 170.78 268.03 178.775 267.38C185.531 266.831 188.775 266.08 195.775 263.88C205.275 261.38 205.475 261.68 204.375 263.68C203.775 264.78 201.275 267.38 198.875 269.28C194.675 272.78 188.777 275.273 181.575 276.88C173.457 278.692 168.463 278.345 160.275 276.88Z" fill="#461C95"/>
<path d="M255.975 252.28C254.875 251.18 256.275 249.88 257.775 250.48C258.575 250.88 258.975 251.48 258.675 251.98C258.075 253.08 256.875 253.18 255.975 252.28Z" fill="#461C95"/>
<path d="M27.2753 231.98C18.7753 229.38 11.5753 222.98 7.37533 214.58C5.07533 209.98 5.37532 208.88 8.67532 208.88C12.0753 208.88 17.2753 214.48 17.2753 214.48C17.5753 214.48 20.7754 216.98 24.7754 218.38C28.7754 219.78 29.225 219.564 32.1753 219.28C34.4213 219.065 34.2754 218.88 39.2754 217.38C44.2754 215.88 50.6754 211.68 51.7754 213.38C52.2754 214.18 51.2753 219.58 51.2753 219.58C51.2753 219.58 50.7753 224.18 48.0753 226.48C41.4753 231.98 33.9753 233.98 27.2753 231.98Z" fill="#461C95"/>
<path d="M336.275 269.78C336.275 269.78 307.175 264.58 296.375 258.18C293.875 256.78 286.375 252.28 281.275 247.38C276.175 242.48 269.909 236.012 263.275 227.88C256.44 219.502 252.775 212.08 248.475 204.48C244.175 196.88 240.275 184.38 240.275 184.38L239.375 181.88L234.775 166.38C234.775 166.38 241.175 173.88 244.675 182.18C247.975 189.78 252.675 198.48 257.475 205.68L260.375 209.88C260.375 209.88 269.275 221.38 277.775 229.88C280.498 232.603 283.875 235.58 288.275 238.88C292.575 242.18 296.059 245.4 301.775 248.38C306.992 251.1 310.464 252.118 315.875 253.68C330.284 257.839 341.175 260.58 353.975 258.48C366.775 256.38 373.775 252.88 384.775 242.88C389.9 238.221 398.275 229.88 398.275 229.88C398.275 229.88 397.775 239.38 393.075 246.58C388.375 253.78 381.821 262.99 370.675 266.88C367.204 268.092 365.475 267.78 361.475 268.88C353.975 270.98 336.275 269.78 336.275 269.78Z" fill="#461C95"/>
<path d="M546.975 190.98C545.975 187.48 542.075 177.68 538.275 169.38C531.075 153.78 529.875 149.88 531.975 149.18C532.975 148.78 541.275 162.88 541.275 162.88C541.275 162.88 545.775 171.18 547.875 184.08C549.775 196.08 549.375 199.58 546.975 190.98Z" fill="#461C95"/>
<path d="M179.075 191.781C176.875 190.181 176.275 188.881 176.275 186.081C176.275 179.881 177.275 179.181 183.075 181.681C185.875 182.881 188.875 183.881 189.675 183.881C190.575 183.881 191.275 184.781 191.275 185.881C191.275 187.381 190.575 187.881 188.375 187.881C185.875 187.881 185.375 188.281 185.075 190.581C184.675 194.081 182.575 194.481 179.075 191.781Z" fill="#461C95"/>
<path d="M134.975 156.38C122.675 152.98 113.075 145.28 116.275 141.38C116.875 140.68 117.844 140.834 118.875 140.58C119.916 140.324 120.507 140.174 121.575 140.08C126.708 139.631 133.775 145.103 133.775 145.103C133.775 145.103 132.275 144.38 133.275 144.88C134.275 145.38 137.775 146.18 140.975 146.48C146.475 147.08 146.875 146.88 150.075 143.88L153.275 140.68V147.08C153.275 155.98 151.775 157.88 144.975 157.78C142.075 157.78 137.575 157.08 134.975 156.38Z" fill="#461C95"/>
<path d="M567.775 140.581C566.775 133.181 567.475 128.081 570.275 122.381C572.975 116.881 575.775 114.781 581.575 114.181C587.275 113.481 595.175 116.881 599.775 121.981C603.475 126.181 604.175 128.881 601.875 130.881C600.675 131.781 599.775 131.581 597.275 129.681C592.875 126.481 586.652 127.64 580.375 129.681C578.347 130.34 577.125 130.661 575.375 131.881C571.556 134.542 570.475 136.181 569.375 142.181L568.575 146.381L567.775 140.581Z" fill="#461C95"/>
<path fill-rule="evenodd" clip-rule="evenodd" d="M132.565 294.906C128.165 292.106 121.865 286.806 118.365 283.406C114.865 280.006 108.533 273.542 103.275 266.38C94.1426 253.941 90.865 245.406 85.265 231.206C79.665 217.006 73.665 206.806 67.265 200.106C59.165 191.806 53.765 189.006 45.065 188.306C36.365 187.706 32.265 189.206 26.865 195.006C21.665 200.506 21.165 200.206 21.165 191.406C21.165 185.106 23.065 180.406 26.765 177.706C30.065 175.306 38.6625 174.42 46.2754 175.381C50.5219 175.917 52.9524 176.471 56.865 178.206C61.0631 180.068 61.065 178.906 66.665 184.706C71.065 189.106 74.565 193.906 77.165 199.006C82.765 210.306 88.3651 225.106 88.3651 225.106C88.3651 225.106 98.065 242.006 100.065 244.806L106.565 253.906C106.565 253.906 124.265 272.406 132.665 278.006C142.265 284.406 142.365 284.506 138.965 283.906C137.465 283.606 136.465 283.806 136.765 284.206C137.065 284.706 136.765 285.106 136.065 285.106C135.265 285.106 135.265 285.506 136.165 286.606C136.865 287.406 137.065 288.106 136.565 288.106C136.065 288.106 136.465 288.606 137.465 289.206C138.365 289.806 138.865 290.706 138.565 291.306C138.165 291.906 138.565 292.706 139.265 293.206C140.265 293.806 139.965 294.106 138.165 294.106H135.665L138.565 296.606C143.865 301.206 140.565 300.206 132.565 294.906Z" fill="#351C74"/>
<path d="M510.666 271.106C508.466 270.606 505.366 269.706 503.666 269.006C502.066 268.306 490.775 260.38 488.276 257.38C487.81 256.821 495.097 259.527 499.276 261.38C503.221 263.13 504.985 265.102 509.066 266.506C515.518 268.727 513.066 268.106 526.466 268.106C535.366 268.106 542.166 268.506 541.666 268.906C538.366 271.806 520.466 273.006 510.666 271.106Z" fill="#351C74"/>
<path d="M465.665 215.406C457.185 214.437 454.965 213.006 444.365 210.506C425.965 206.106 425.165 205.806 425.765 203.806C427.065 199.306 427.365 199.206 450.865 200.406C476.465 201.606 473.365 202.606 483.165 190.506C492.465 179.106 493.465 176.106 490.865 168.506C488.265 161.106 487.965 159.106 489.665 159.106C490.465 159.106 491.365 160.306 491.765 161.906C492.065 163.406 492.765 166.006 493.265 167.606C493.765 169.306 494.765 174.706 495.565 179.606C497.765 193.606 495.778 201.596 486.665 209.906C484.095 212.25 482.536 213.667 479.275 214.88C477.396 215.58 476.258 215.781 474.265 216.006C470.92 216.385 469.01 215.789 465.665 215.406Z" fill="#351C74"/>
<path d="M193.965 198.006C183.865 196.506 176.065 191.306 171.165 182.806C168.965 179.006 168.565 177.406 169.365 176.406C170.965 174.406 173.065 174.806 176.665 178.006C178.465 179.606 180.565 181.106 181.365 181.406C182.365 181.806 184.775 182.806 184.775 182.806C184.775 182.806 191.065 184.606 200.265 184.906C218.665 185.406 221.065 184.806 225.165 179.106C226.365 177.506 227.965 176.106 228.865 176.106C230.165 176.106 230.365 177.006 229.765 181.806C229.065 188.006 226.586 191.781 221.775 195.88C213.486 202.946 204.265 199.506 193.965 198.006Z" fill="#351C74"/>
<path d="M180.776 169.38C175.882 163.471 173.976 152.88 175.776 150.38C176.876 148.88 177.823 160.892 184.275 167.38C190.243 173.38 196.365 177.106 196.365 177.106C195.175 177.106 184.37 173.721 180.776 169.38Z" fill="#351C74"/>
<path d="M285.665 172.406C284.765 169.806 283.565 166.506 283.065 165.106C281.265 159.806 280.065 148.306 280.665 141.106C282.065 124.806 283.038 115.394 290.775 101.38C291.876 99.3869 291.989 98.3309 292.775 96.3804C294.919 91.0633 293.065 93.2063 298.365 82.8063C303.865 72.1063 306.611 63.7986 316.865 56.6063C321.304 53.4928 324.053 51.8382 329.275 50.3803C335.335 48.6889 345.365 49.6063 345.365 49.6063C369.565 49.6063 378.48 50.0975 390.465 64.2063C393.109 67.3183 394.347 69.3014 396.265 72.9063C398.848 77.7606 399.71 80.8037 401.165 86.1063C402.242 90.0282 403.965 92.6063 403.265 96.3063L402.565 99.6063L401.265 94.8063C399.465 88.4063 393.465 79.3063 388.565 75.4063C378.865 67.8063 365.565 63.9063 348.765 63.8063C336.265 63.7063 328.065 67.7063 328.065 67.7063C328.065 67.7063 325.729 68.9861 324.275 69.8803C321.638 71.5029 320.965 72.1063 317.765 74.4063C303.265 84.6063 288.465 112.406 285.065 136.006C283.665 146.306 284.365 163.606 286.665 170.906C288.765 177.706 287.965 178.806 285.665 172.406Z" fill="#351C74"/>
<path d="M65.4651 154.006C62.5651 152.406 60.1651 151.606 60.1651 152.206C60.1651 153.006 56.0651 153.206 46.6651 152.906C35.8651 152.606 32.8651 152.206 31.5651 150.906C29.4651 148.806 30.3651 146.406 33.8651 145.006C35.3651 144.406 37.7651 143.406 38.9651 142.806C40.2651 142.206 44.7651 141.706 48.8651 141.806C55.2651 141.906 57.3651 142.406 63.5651 145.506C67.5651 147.406 72.8651 150.906 75.2651 153.006L79.6651 157.006H75.1651C72.0651 157.006 68.9651 156.006 65.4651 154.006Z" fill="#351C74"/>
<path d="M149.265 155.506C149.965 154.606 150.665 151.406 150.765 148.406C151.065 140.306 153.165 139.006 153.165 147.006C153.165 153.806 151.965 157.106 149.465 157.106C148.165 157.106 148.165 156.906 149.265 155.506Z" fill="#351C74"/>
<path d="M600.565 154.506C595.465 152.006 591.765 147.606 592.965 145.506C593.565 144.506 593.565 142.606 593.165 140.906C592.065 137.306 593.465 136.506 596.965 138.906C600.765 141.606 606.765 143.406 609.365 142.606C613.765 141.306 617.765 139.206 619.765 137.006C622.265 134.206 629.765 130.706 631.665 131.506C634.765 132.706 632.765 144.206 628.865 147.906C625.965 150.606 611.265 156.106 606.865 156.106C605.065 156.106 602.265 155.406 600.565 154.506Z" fill="#351C74"/>
<path d="M366.565 152.207C364.078 150.928 361.665 149.307 360.765 148.007C358.665 145.007 358.665 138.207 360.665 137.407C362.265 136.807 367.431 142.197 372.465 142.907C379.144 143.847 385.565 139.507 389.165 138.507C392.165 137.707 400.065 134.407 402.165 133.107C408.165 129.307 414.865 127.507 414.865 127.507C414.865 127.507 421.275 124.88 424.775 119.38C425.727 117.885 427.265 114.907 428.665 112.807C430.665 109.607 433.165 109.307 433.165 112.107C433.165 114.507 429.665 124.107 427.765 126.607C426.365 128.507 427.275 127.38 425.665 129.307C425.665 129.307 421.798 133.07 419.165 135.307C415.51 138.411 413.315 139.986 409.365 142.707C406.76 144.501 405.367 145.638 402.565 147.107C399.868 148.521 398.243 149.106 395.365 150.107C392.68 151.04 391.146 151.514 388.365 152.107C380.039 153.882 374.138 156.098 366.565 152.207Z" fill="#351C74"/>
<path d="M165.865 141.006C164.665 131.106 157.165 124.106 147.965 124.106C142.265 124.106 137.265 127.206 136.465 131.106C135.765 134.806 134.865 134.906 132.165 131.406C130.465 129.206 130.065 127.606 130.365 124.006C130.865 118.906 132.97 116.494 136.665 113.406C137.445 112.754 137.884 112.369 138.775 111.88C141.366 110.46 146.275 110.88 146.275 110.88C146.275 110.88 149.965 111.106 155.665 111.106C163.865 111.106 167.465 118.606 167.365 135.506C167.265 140.906 167.065 145.506 166.865 145.706C166.665 146.006 166.165 143.806 165.865 141.006Z" fill="#351C74"/>
<path d="M478.365 118.106C476.165 108.706 475.965 104.706 477.165 100.106C479.365 92.0065 490.365 84.1065 497.265 85.8065C505.965 87.9065 504.765 97.0065 495.565 98.4065C492.765 98.9065 489.965 100.507 486.265 103.807C480.965 108.607 480.965 108.606 480.265 116.106L479.565 123.606L478.365 118.106Z" fill="#351C74"/>
<path d="M539.765 113.406C542.165 102.206 543.065 100.706 550.565 93.2062C557.765 86.0062 558.265 85.8062 563.665 85.3062C569.665 84.8062 578.565 87.4062 577.865 89.4062C577.365 91.0062 567.668 95.0492 560.865 98.1062C559.35 98.7873 558.426 99.0146 556.965 99.8062C555.308 100.704 554.457 101.355 552.965 102.506C549.795 104.952 548.565 106.406 545.765 109.806C542.965 113.206 540.365 116.006 539.865 116.006C539.465 116.106 539.365 114.906 539.765 113.406Z" fill="#351C74"/>
<path d="M501.165 108.706C501.165 105.106 504.365 100.106 506.665 100.106C507.465 100.106 509.565 99.2064 511.365 98.1064C513.165 97.0064 515.665 96.1064 516.965 96.1064C519.065 96.1064 519.265 96.5065 518.965 100.206C518.765 102.706 518.065 104.706 517.165 105.206C514.065 106.806 502.365 112.106 501.765 112.106C501.465 112.106 501.165 110.606 501.165 108.706Z" fill="#351C74"/>
<path d="M459.965 91.6061C459.765 91.3061 459.665 89.8061 459.965 88.2061C460.465 84.4061 474.865 70.2061 478.265 70.0061C485.665 69.6061 492.065 69.8061 493.765 70.5061C495.565 71.2061 495.565 71.3061 493.265 73.2061C491.965 74.2061 490.265 75.1061 489.465 75.1061C488.665 75.1061 486.665 76.2061 484.965 77.6061C483.365 79.0061 481.165 80.1061 480.065 80.1061C477.665 80.1061 469.765 84.3061 466.165 87.5061C462.165 91.0061 460.565 92.1061 459.965 91.6061Z" fill="#351C74"/>
<path d="M282.665 61.9063C283.065 60.6063 285.365 55.3063 287.865 50.1063C293.565 38.4063 299.965 31.7063 309.065 28.2063C321.165 23.5063 342.065 26.1063 357.565 34.4063L363.565 37.6063L341.665 38.2063C319.165 38.9063 314.065 39.6063 306.965 43.2063C302.165 45.6063 289.565 58.0063 288.165 61.6063C287.465 63.4063 286.465 64.1063 284.665 64.1063C282.365 64.1063 282.165 63.8063 282.665 61.9063Z" fill="#351C74"/>
<path d="M77.2756 159.88C69.7756 155.88 56.8756 151.88 51.4756 151.88H46.9756L49.3756 149.28C51.5756 146.88 52.2756 146.78 57.3756 147.28C62.9756 147.98 70.5756 150.88 71.7756 152.88C72.0756 153.38 73.4756 153.88 74.7756 153.88C76.9756 153.88 83.2756 159.78 83.2756 161.88C83.2756 163.08 83.7756 163.28 77.2756 159.88Z" fill="#120731"/>
<path d="M275.676 90.4801C276.476 83.6801 281.076 65.9801 282.776 62.9801C283.576 61.4801 284.676 59.3801 285.176 58.0801C286.876 54.4801 299.676 42.2801 304.176 39.9801C310.276 36.7801 321.676 34.6801 328.476 35.4801C335.276 36.2801 335.276 37.8801 328.476 37.8801C325.876 37.8801 324.332 38.6418 321.776 39.4801C319.364 40.2713 317.976 41.3801 315.776 41.9801C313.576 42.5801 310.676 44.0801 309.276 45.3801C307.876 46.5801 305.576 48.3801 304.076 49.2801C300.676 51.4801 294.376 60.9801 285.276 77.8801C281.276 85.2801 277.376 92.2801 276.576 93.3801C275.176 95.1801 275.076 94.9801 275.676 90.4801Z" fill="#120731"/>
</svg>
