<svg width="791" height="190" viewBox="0 0 791 190" fill="none" xmlns="http://www.w3.org/2000/svg">
<path d="M60.7745 64.7682C60.5123 61.4902 59.283 58.9333 57.0867 57.0976C54.9232 55.2619 51.6288 54.3441 47.2035 54.3441C44.3844 54.3441 42.0734 54.6883 40.2705 55.3767C38.5004 56.0323 37.1892 56.9337 36.3369 58.081C35.4846 59.2283 35.042 60.5395 35.0093 62.0146C34.9437 63.2275 35.1568 64.3257 35.6485 65.3091C36.173 66.2597 36.9925 67.1284 38.107 67.9151C39.2215 68.669 40.6475 69.3574 42.3848 69.9802C44.1222 70.6031 46.1873 71.1603 48.5803 71.652L56.8409 73.4222C62.4135 74.6023 67.183 76.1593 71.1495 78.0933C75.1159 80.0274 78.3611 82.3056 80.8852 84.928C83.4093 87.5177 85.2613 90.4351 86.4414 93.6803C87.6543 96.9256 88.2771 100.466 88.3099 104.301C88.2771 110.923 86.6217 116.528 83.3437 121.117C80.0657 125.707 75.3781 129.198 69.281 131.591C63.2166 133.984 55.923 135.18 47.4002 135.18C38.6479 135.18 31.0101 133.885 24.4868 131.296C17.9963 128.706 12.9482 124.723 9.34236 119.347C5.76932 113.939 3.96641 107.022 3.93363 98.5974H29.8956C30.0595 101.679 30.8298 104.268 32.2066 106.366C33.5833 108.464 35.5174 110.054 38.0087 111.136C40.5327 112.218 43.5321 112.758 47.0068 112.758C49.9243 112.758 52.3664 112.398 54.3332 111.677C56.3 110.956 57.7915 109.956 58.8077 108.677C59.8239 107.399 60.3484 105.94 60.3812 104.301C60.3484 102.76 59.8403 101.416 58.8569 100.269C57.9063 99.0891 56.3328 98.0401 54.1365 97.1223C51.9402 96.1716 48.9736 95.2866 45.2367 94.4671L35.206 92.3036C26.2897 90.3695 19.2584 87.1407 14.1119 82.617C8.99817 78.0606 6.4577 71.8487 6.49048 63.9815C6.4577 57.5893 8.16227 52.0003 11.6042 47.2144C15.0789 42.3957 19.8812 38.6424 26.0111 35.9544C32.1738 33.2664 39.2379 31.9224 47.2035 31.9224C55.333 31.9224 62.3644 33.2828 68.2976 36.0035C74.2308 38.7243 78.8036 42.5596 82.0161 47.5094C85.2613 52.4264 86.9003 58.1794 86.9331 64.7682H60.7745ZM126.245 91.5168V134H99.1028V58.4744H124.868V72.8321H125.655C127.294 68.0462 130.178 64.2929 134.309 61.5721C138.472 58.8514 143.323 57.491 148.863 57.491C154.206 57.491 158.845 58.7202 162.778 61.1788C166.745 63.6045 169.81 66.9481 171.973 71.2095C174.169 75.4709 175.251 80.3388 175.218 85.8131V134H148.076V91.5168C148.109 87.7799 147.159 84.8461 145.225 82.7154C143.323 80.5846 140.668 79.5193 137.259 79.5193C135.03 79.5193 133.079 80.011 131.408 80.9944C129.769 81.945 128.507 83.3218 127.622 85.1247C126.736 86.8948 126.278 89.0255 126.245 91.5168ZM209.662 135.18C204.844 135.18 200.582 134.393 196.878 132.82C193.207 131.214 190.322 128.788 188.224 125.543C186.126 122.297 185.077 118.167 185.077 113.152C185.077 109.021 185.782 105.498 187.191 102.58C188.601 99.6299 190.568 97.2206 193.092 95.3521C195.616 93.4837 198.55 92.0577 201.893 91.0743C205.27 90.0909 208.908 89.4517 212.809 89.1567C217.038 88.8289 220.431 88.4355 222.987 87.9766C225.577 87.4849 227.446 86.8129 228.593 85.9606C229.74 85.0755 230.314 83.9118 230.314 82.4695V82.2728C230.314 80.306 229.56 78.7981 228.052 77.7492C226.544 76.7002 224.61 76.1757 222.25 76.1757C219.66 76.1757 217.546 76.7494 215.907 77.8967C214.301 79.0112 213.334 80.7322 213.006 83.0595H188.027C188.355 78.4703 189.814 74.2417 192.403 70.3736C195.026 66.4728 198.845 63.3586 203.86 61.0312C208.876 58.6711 215.137 57.491 222.643 57.491C228.052 57.491 232.903 58.1302 237.198 59.4086C241.492 60.6543 245.147 62.408 248.163 64.6698C251.178 66.8989 253.473 69.5213 255.046 72.5371C256.653 75.5201 257.456 78.7653 257.456 82.2728V134H232.084V123.379H231.494C229.986 126.198 228.15 128.477 225.987 130.214C223.856 131.951 221.414 133.213 218.66 134C215.94 134.787 212.94 135.18 209.662 135.18ZM218.513 118.069C220.578 118.069 222.512 117.643 224.315 116.79C226.151 115.938 227.642 114.709 228.79 113.103C229.937 111.496 230.51 109.546 230.51 107.251V100.958C229.789 101.253 229.019 101.531 228.199 101.793C227.413 102.056 226.56 102.302 225.643 102.531C224.758 102.76 223.807 102.974 222.791 103.17C221.807 103.367 220.775 103.547 219.693 103.711C217.595 104.039 215.874 104.58 214.53 105.334C213.219 106.055 212.235 106.956 211.58 108.038C210.957 109.087 210.646 110.267 210.646 111.578C210.646 113.676 211.383 115.282 212.858 116.397C214.333 117.512 216.218 118.069 218.513 118.069ZM270.424 162.322V58.4744H297.37V71.652H297.96C298.943 69.0952 300.386 66.7514 302.287 64.6207C304.188 62.4572 306.548 60.7362 309.367 59.4578C312.186 58.1466 315.464 57.491 319.201 57.491C324.184 57.491 328.921 58.8186 333.412 61.4738C337.935 64.129 341.607 68.3084 344.426 74.0122C347.278 79.716 348.704 87.1243 348.704 96.2372C348.704 104.957 347.343 112.185 344.622 117.921C341.934 123.658 338.329 127.936 333.805 130.755C329.314 133.574 324.381 134.983 319.005 134.983C315.464 134.983 312.301 134.41 309.515 133.262C306.761 132.082 304.401 130.493 302.434 128.493C300.5 126.461 299.009 124.166 297.96 121.609H297.566V162.322H270.424ZM296.976 96.2372C296.976 99.9086 297.452 103.088 298.402 105.776C299.386 108.431 300.763 110.497 302.533 111.972C304.336 113.414 306.483 114.135 308.974 114.135C311.465 114.135 313.58 113.43 315.317 112.021C317.087 110.579 318.431 108.53 319.349 105.875C320.3 103.187 320.775 99.9741 320.775 96.2372C320.775 92.5002 320.3 89.3042 319.349 86.649C318.431 83.961 317.087 81.9122 315.317 80.5027C313.58 79.0604 311.465 78.3392 308.974 78.3392C306.483 78.3392 304.336 79.0604 302.533 80.5027C300.763 81.9122 299.386 83.961 298.402 86.649C297.452 89.3042 296.976 92.5002 296.976 96.2372ZM360.074 134V58.4744H385.84V72.8321H386.626C388.2 68.1118 390.888 64.3748 394.69 61.6213C398.493 58.8677 403.016 57.491 408.261 57.491C413.572 57.491 418.144 58.9005 421.98 61.7196C425.815 64.5059 428.126 68.2101 428.913 72.8321H429.699C430.978 68.2101 433.699 64.5059 437.862 61.7196C442.025 58.9005 446.909 57.491 452.514 57.491C459.759 57.491 465.627 59.8184 470.117 64.4732C474.641 69.128 476.903 75.3234 476.903 83.0595V134H449.761V89.9434C449.761 86.6326 448.925 84.043 447.253 82.1745C445.581 80.2732 443.336 79.3226 440.517 79.3226C437.731 79.3226 435.518 80.2732 433.879 82.1745C432.273 84.043 431.47 86.6326 431.47 89.9434V134H405.508V89.9434C405.508 86.6326 404.672 84.043 403 82.1745C401.328 80.2732 399.083 79.3226 396.264 79.3226C394.395 79.3226 392.789 79.7487 391.445 80.601C390.101 81.4533 389.052 82.6826 388.298 84.2888C387.577 85.8623 387.216 87.7471 387.216 89.9434V134H360.074ZM511.334 135.18C506.516 135.18 502.254 134.393 498.55 132.82C494.879 131.214 491.994 128.788 489.896 125.543C487.798 122.297 486.749 118.167 486.749 113.152C486.749 109.021 487.454 105.498 488.864 102.58C490.273 99.6299 492.24 97.2206 494.764 95.3521C497.288 93.4837 500.222 92.0577 503.566 91.0743C506.942 90.0909 510.58 89.4517 514.481 89.1567C518.71 88.8289 522.103 88.4355 524.66 87.9766C527.249 87.4849 529.118 86.8129 530.265 85.9606C531.412 85.0755 531.986 83.9118 531.986 82.4695V82.2728C531.986 80.306 531.232 78.7981 529.724 77.7492C528.216 76.7002 526.282 76.1757 523.922 76.1757C521.332 76.1757 519.218 76.7494 517.579 77.8967C515.973 79.0112 515.006 80.7322 514.678 83.0595H489.7C490.027 78.4703 491.486 74.2417 494.076 70.3736C496.698 66.4728 500.517 63.3586 505.532 61.0312C510.548 58.6711 516.809 57.491 524.315 57.491C529.724 57.491 534.576 58.1302 538.87 59.4086C543.164 60.6543 546.819 62.408 549.835 64.6698C552.851 66.8989 555.145 69.5213 556.719 72.5371C558.325 75.5201 559.128 78.7653 559.128 82.2728V134H533.756V123.379H533.166C531.658 126.198 529.822 128.477 527.659 130.214C525.528 131.951 523.086 133.213 520.333 134C517.612 134.787 514.612 135.18 511.334 135.18ZM520.185 118.069C522.25 118.069 524.184 117.643 525.987 116.79C527.823 115.938 529.314 114.709 530.462 113.103C531.609 111.496 532.183 109.546 532.183 107.251V100.958C531.461 101.253 530.691 101.531 529.872 101.793C529.085 102.056 528.233 102.302 527.315 102.531C526.43 102.76 525.479 102.974 524.463 103.17C523.48 103.367 522.447 103.547 521.365 103.711C519.267 104.039 517.546 104.58 516.202 105.334C514.891 106.055 513.908 106.956 513.252 108.038C512.629 109.087 512.318 110.267 512.318 111.578C512.318 113.676 513.055 115.282 514.531 116.397C516.006 117.512 517.89 118.069 520.185 118.069ZM596.485 116.102L596.682 83.8463H600.222L618.513 58.4744H648.999L618.317 98.0073H610.646L596.485 116.102ZM572.097 134V33.2992H599.239V134H572.097ZM618.71 134L601.402 104.104L619.104 84.8297L649.786 134H618.71ZM689.147 135.377C681.083 135.377 674.133 133.836 668.298 130.755C662.496 127.641 658.022 123.183 654.875 117.38C651.761 111.546 650.204 104.563 650.204 96.4339C650.204 88.6322 651.777 81.8139 654.924 75.979C658.071 70.1441 662.513 65.6041 668.249 62.3588C673.986 59.1136 680.755 57.491 688.557 57.491C694.26 57.491 699.423 58.376 704.045 60.1462C708.667 61.9163 712.617 64.4896 715.895 67.8659C719.173 71.2095 721.697 75.2742 723.468 80.0602C725.238 84.8461 726.123 90.2384 726.123 96.2372V102.531H658.661V87.5832H701.144C701.111 85.4197 700.554 83.5185 699.472 81.8795C698.423 80.2077 696.997 78.9129 695.195 77.995C693.424 77.0444 691.408 76.5691 689.147 76.5691C686.95 76.5691 684.934 77.0444 683.099 77.995C681.263 78.9129 679.788 80.1913 678.673 81.8303C677.592 83.4693 677.018 85.3869 676.952 87.5832V103.711C676.952 106.137 677.46 108.3 678.477 110.202C679.493 112.103 680.952 113.594 682.853 114.676C684.754 115.758 687.049 116.299 689.737 116.299C691.605 116.299 693.31 116.036 694.85 115.512C696.424 114.987 697.768 114.234 698.882 113.25C699.997 112.234 700.816 111.021 701.341 109.612H726.123C725.27 114.856 723.254 119.413 720.075 123.281C716.895 127.116 712.683 130.099 707.438 132.23C702.226 134.328 696.129 135.377 689.147 135.377ZM737.198 134V58.4744H763.554V72.8321H764.34C765.717 67.5217 767.897 63.6373 770.88 61.1788C773.896 58.7202 777.42 57.491 781.452 57.491C782.632 57.491 783.795 57.5893 784.943 57.786C786.123 57.9499 787.254 58.1958 788.335 58.5236V81.6828C786.991 81.2239 785.336 80.8797 783.369 80.6502C781.402 80.4207 779.714 80.306 778.305 80.306C775.649 80.306 773.257 80.9124 771.126 82.1253C769.028 83.3054 767.372 84.9772 766.16 87.1407C764.947 89.2714 764.34 91.7791 764.34 94.6637V134H737.198Z" fill="#6E2DC8"/>
<path d="M312.276 181V154.818H329.918V159.382H317.811V165.621H329.01V170.185H317.811V176.436H329.969V181H312.276ZM348.522 162.348C348.419 161.317 347.98 160.516 347.205 159.945C346.429 159.374 345.377 159.088 344.047 159.088C343.144 159.088 342.381 159.216 341.759 159.472C341.137 159.719 340.659 160.064 340.327 160.507C340.003 160.95 339.841 161.453 339.841 162.016C339.824 162.484 339.922 162.893 340.135 163.243C340.357 163.592 340.659 163.895 341.043 164.151C341.426 164.398 341.87 164.615 342.373 164.803C342.875 164.982 343.412 165.135 343.983 165.263L346.336 165.825C347.478 166.081 348.526 166.422 349.48 166.848C350.435 167.274 351.262 167.798 351.961 168.42C352.659 169.043 353.201 169.776 353.584 170.619C353.976 171.463 354.176 172.43 354.185 173.521C354.176 175.124 353.767 176.513 352.958 177.689C352.157 178.857 350.998 179.764 349.48 180.412C347.972 181.051 346.152 181.371 344.022 181.371C341.908 181.371 340.067 181.047 338.499 180.399C336.939 179.751 335.721 178.793 334.843 177.523C333.973 176.244 333.517 174.663 333.475 172.78H338.831C338.891 173.658 339.142 174.391 339.586 174.979C340.037 175.558 340.638 175.997 341.388 176.295C342.147 176.585 343.003 176.73 343.958 176.73C344.895 176.73 345.709 176.594 346.4 176.321C347.098 176.048 347.64 175.669 348.023 175.183C348.407 174.697 348.598 174.139 348.598 173.509C348.598 172.92 348.424 172.426 348.074 172.026C347.733 171.625 347.23 171.284 346.566 171.003C345.909 170.722 345.104 170.466 344.15 170.236L341.299 169.52C339.091 168.983 337.348 168.143 336.07 167.001C334.792 165.859 334.157 164.321 334.165 162.386C334.157 160.801 334.578 159.416 335.431 158.232C336.292 157.047 337.472 156.122 338.972 155.457C340.472 154.793 342.176 154.46 344.086 154.46C346.029 154.46 347.725 154.793 349.174 155.457C350.631 156.122 351.765 157.047 352.574 158.232C353.384 159.416 353.801 160.788 353.827 162.348H348.522ZM356.911 159.382V154.818H378.414V159.382H370.398V181H364.927V159.382H356.911ZM383.806 181.332C382.962 181.332 382.238 181.034 381.632 180.438C381.036 179.832 380.738 179.108 380.738 178.264C380.738 177.429 381.036 176.713 381.632 176.116C382.238 175.52 382.962 175.222 383.806 175.222C384.624 175.222 385.34 175.52 385.953 176.116C386.567 176.713 386.874 177.429 386.874 178.264C386.874 178.827 386.729 179.342 386.439 179.811C386.158 180.271 385.787 180.642 385.327 180.923C384.867 181.196 384.36 181.332 383.806 181.332ZM391.294 181V177.011L400.614 168.382C401.406 167.615 402.071 166.925 402.608 166.311C403.153 165.697 403.567 165.097 403.848 164.509C404.129 163.912 404.27 163.268 404.27 162.578C404.27 161.811 404.095 161.151 403.746 160.597C403.396 160.034 402.919 159.604 402.314 159.305C401.709 158.999 401.023 158.845 400.256 158.845C399.455 158.845 398.756 159.007 398.159 159.331C397.563 159.655 397.102 160.119 396.778 160.724C396.455 161.33 396.293 162.05 396.293 162.885H391.038C391.038 161.172 391.426 159.685 392.202 158.423C392.977 157.162 394.064 156.186 395.462 155.496C396.859 154.805 398.47 154.46 400.294 154.46C402.169 154.46 403.801 154.793 405.19 155.457C406.588 156.114 407.675 157.026 408.45 158.193C409.226 159.361 409.614 160.699 409.614 162.207C409.614 163.196 409.418 164.172 409.026 165.135C408.642 166.098 407.956 167.168 406.967 168.344C405.979 169.511 404.585 170.913 402.787 172.55L398.964 176.295V176.474H409.959V181H391.294ZM424.235 181.575C422.037 181.567 420.145 181.026 418.559 179.952C416.983 178.878 415.768 177.322 414.916 175.286C414.072 173.249 413.654 170.798 413.663 167.935C413.663 165.08 414.085 162.646 414.929 160.635C415.781 158.624 416.995 157.094 418.572 156.045C420.157 154.989 422.045 154.46 424.235 154.46C426.426 154.46 428.309 154.989 429.886 156.045C431.471 157.102 432.69 158.636 433.542 160.648C434.395 162.651 434.816 165.08 434.808 167.935C434.808 170.807 434.382 173.261 433.529 175.298C432.686 177.335 431.475 178.891 429.899 179.964C428.322 181.038 426.434 181.575 424.235 181.575ZM424.235 176.986C425.735 176.986 426.933 176.232 427.828 174.723C428.723 173.214 429.166 170.952 429.157 167.935C429.157 165.949 428.953 164.295 428.544 162.974C428.143 161.653 427.572 160.661 426.831 159.996C426.098 159.331 425.233 158.999 424.235 158.999C422.744 158.999 421.551 159.744 420.656 161.236C419.761 162.727 419.309 164.96 419.301 167.935C419.301 169.946 419.501 171.625 419.902 172.972C420.311 174.31 420.886 175.315 421.627 175.989C422.369 176.653 423.238 176.986 424.235 176.986ZM438.755 181V177.011L448.075 168.382C448.867 167.615 449.532 166.925 450.069 166.311C450.614 165.697 451.028 165.097 451.309 164.509C451.59 163.912 451.731 163.268 451.731 162.578C451.731 161.811 451.556 161.151 451.207 160.597C450.857 160.034 450.38 159.604 449.775 159.305C449.17 158.999 448.484 158.845 447.717 158.845C446.915 158.845 446.217 159.007 445.62 159.331C445.023 159.655 444.563 160.119 444.239 160.724C443.915 161.33 443.754 162.05 443.754 162.885H438.499C438.499 161.172 438.887 159.685 439.663 158.423C440.438 157.162 441.525 156.186 442.923 155.496C444.32 154.805 445.931 154.46 447.755 154.46C449.63 154.46 451.262 154.793 452.651 155.457C454.049 156.114 455.136 157.026 455.911 158.193C456.687 159.361 457.075 160.699 457.075 162.207C457.075 163.196 456.879 164.172 456.487 165.135C456.103 166.098 455.417 167.168 454.428 168.344C453.44 169.511 452.046 170.913 450.248 172.55L446.425 176.295V176.474H457.42V181H438.755ZM460.472 176.398V172.038L471.402 154.818H475.161V160.852H472.936L466.046 171.757V171.962H481.578V176.398H460.472ZM473.039 181V175.068L473.141 173.138V154.818H478.331V181H473.039Z" fill="#9664E8"/>
</svg>
